<svg width="12" height="15" viewBox="0 0 12 15" fill="none" xmlns="http://www.w3.org/2000/svg">
<path d="M10.9928 0.37323H9.66236C9.48095 0.37323 9.32977 0.522836 9.32977 0.702364V9.43937V9.46929C9.32977 11.2945 7.84819 12.7606 6.00378 12.7606C4.15937 12.7606 2.6778 11.2945 2.6778 9.46929V9.43937V0.702364C2.6778 0.522836 2.52661 0.37323 2.3452 0.37323H1.0148C0.833386 0.37323 0.682205 0.522836 0.682205 0.702364V9.46929C0.682205 12.3417 3.01039 14.6756 5.91307 14.7354H6.03402H6.15496C9.0274 14.6756 11.3858 12.3417 11.3858 9.46929V0.702364C11.3556 0.522836 11.2044 0.37323 10.9928 0.37323Z" fill="black"/>
</svg>
