<svg width="24" height="38" viewBox="0 0 24 38" fill="none" xmlns="http://www.w3.org/2000/svg">
<path d="M23.4633 0.119686H0.574491C0.332601 0.119686 0.151184 0.299214 0.151184 0.538584V18.1323V20.1969V37.5811C0.151184 37.8205 0.332601 38 0.574491 38H23.4633C23.7052 38 23.8866 37.8205 23.8866 37.5811V20.1969V18.1323V0.538584C23.8866 0.299214 23.7052 0.119686 23.4633 0.119686ZM2.0863 2.45354V2.2441C2.0863 2.12441 2.17701 2.00473 2.32819 2.00473H2.53985H21.5584H21.7701C21.891 2.00473 22.012 2.09449 22.012 2.2441V2.45354V19.389L12.3666 28.9339L12.2154 29.0835C12.1247 29.1732 11.9735 29.1732 11.8828 29.0835L11.7317 28.9339L2.0863 19.389V2.45354ZM21.9515 35.6661V35.8756C21.9515 35.9953 21.8608 36.115 21.7096 36.115H21.498H2.50961H2.29796C2.17701 36.115 2.05607 36.0252 2.05607 35.8756V35.6661V22.0819L11.7014 31.6268C11.8526 31.7764 12.1247 31.7764 12.3061 31.6268L21.9515 22.0819V35.6661Z" fill="black"/>
</svg>
